PathFileType	4	(X/Y/Z)	C:/Users/opensim2020/Desktop/walking_exp_matlab/subject02_walking10_straight_01.trc																																																																																																																															
DataRate	CameraRate	NumFrames	NumMarkers	Units	OrigDataRate	OrigDataStartFrame	OrigNumFrames																																																																																																																											
100	100	5	43	mm	100	613	328																																																																																																																											
Frame#	Time	LFHD			RFHD			LBHD			RBHD			C7			T10			CLAV			STRN			RBAK			LSHO			LUPA			LELB			LFRM			LWRA			LWRB			LFIN			RSHO			RUPA			RELB			RFRM			RWRA			RWRB			RFIN			LASI			RASI			LPSI			RPSI			LTHI			LKNE			LTIB			LANK			LHEE			LTOE			RTHI			RKNE			RTIB			RANK			RHEE			RTOE			*39			*40			*41			*42		
		X1	Y1	Z1	X2	Y2	Z2	X3	Y3	Z3	X4	Y4	Z4	X5	Y5	Z5	X6	Y6	Z6	X7	Y7	Z7	X8	Y8	Z8	X9	Y9	Z9	X10	Y10	Z10	X11	Y11	Z11	X12	Y12	Z12	X13	Y13	Z13	X14	Y14	Z14	X15	Y15	Z15	X16	Y16	Z16	X17	Y17	Z17	X18	Y18	Z18	X19	Y19	Z19	X20	Y20	Z20	X21	Y21	Z21	X22	Y22	Z22	X23	Y23	Z23	X24	Y24	Z24	X25	Y25	Z25	X26	Y26	Z26	X27	Y27	Z27	X28	Y28	Z28	X29	Y29	Z29	X30	Y30	Z30	X31	Y31	Z31	X32	Y32	Z32	X33	Y33	Z33	X34	Y34	Z34	X35	Y35	Z35	X36	Y36	Z36	X37	Y37	Z37	X38	Y38	Z38	X39	Y39	Z39	X40	Y40	Z40	X41	Y41	Z41	X42	Y42	Z42	X43	Y43	Z43
																																																																																																																																		
165	1.64	-337.87854	1756.00415	1333.94177	-326.45825	1741.25134	1477.3877	-431.14243	1638.02222	1330.89441	-431.54074	1617.55774	1472.86975	-450.05774	1521.72205	1397.33606	-514.99628	1252.77515	1396.36121	-313.07993	1452.83398	1390.46606	-269.59454	1275.3645	1398.44751	-516.35632	1354.20459	1457.6842	-364.5773	1498.44507	1219.34766	-346.61072	1303.29102	1122.82996	-318.92343	1165.92102	1099.13965	-273.28519	1041.64795	1087.52356	-196.17267	933.68597	1130.76013	-231.39883	926.42719	1087.17981	-193.43687	872.1272	1086.36707	-373.85172	1483.90161	1586.15955	-405.79025	1291.16931	1666.4729	-388.99942	1144.99915	1684.94629	-347.07657	1031.15186	1700.80371	-284.25165	912.08728	1676.05286	-328.97775	902.19708	1709.59875	-283.47916	845.4892	1709.59094	-292.14621	984.97253	1268.75098	-300.81509	973.11383	1524.12988	-502.67514	1032.13367	1344.32141	-511.15253	1029.17273	1457.98792	-376.05661	674.23792	1220.92236	-423.72122	474.6962	1252.03723	-494.90573	291.93411	1255.32666	-507.89264	69.13965	1295.06165	-544.16681	40.80452	1346.33582	-352.60431	32.63237	1276.68188	-317.70718	678.64807	1612.46851	-242.47467	484.61111	1593.11597	-267.55109	300.37601	1609.74475	-264.30893	105.39385	1590.18042	-283.43576	41.53866	1534.77209	-114.06225	67.73615	1623.33081	-453.483	1779.80786	1427.10413	2845.18921	1034.05933	-3360.43457	NaN	NaN	NaN	NaN	NaN	NaN
166	1.65	-330.13382	1755.29871	1335.70728	-318.84329	1740.33899	1479.11621	-423.74066	1637.51465	1332.40955	-424.26141	1616.88293	1474.41846	-442.87061	1521.08765	1398.59119	-507.9852	1252.18896	1397.18005	-305.858	1452.11694	1391.72864	-262.62302	1274.61389	1399.37598	-509.38348	1353.55432	1458.52271	-357.17593	1498.13635	1220.59814	-338.85599	1303.31604	1124.05115	-310.88223	1166.12219	1099.73303	-264.56802	1042.10571	1088.06567	-186.47945	934.6037	1131.49597	-221.63493	926.96674	1088.00146	-183.26634	873.16455	1087.10242	-366.81818	1482.76721	1587.38818	-399.34625	1290.06665	1667.39307	-383.1091	1143.81189	1685.57874	-341.91531	1029.81091	1701.62927	-279.51611	910.50897	1677.00684	-324.49924	900.71576	1710.44763	-279.19229	843.61365	1710.57202	-285.71994	984.1734	1269.20349	-293.89441	972.41382	1524.41296	-495.98013	1031.62134	1345.14368	-504.13416	1028.61023	1458.85437	-371.4169	673.66339	1221.64868	-420.76505	474.39005	1252.53027	-493.22678	292.07224	1255.63696	-507.61139	69.32476	1295.21423	-543.9989	41.04913	1346.50085	-352.30112	32.51382	1276.63025	-310.80023	678.03217	1612.94238	-234.01874	484.15982	1593.01721	-252.08139	299.54004	1611.85889	-242.55	104.43338	1593.65479	-260.81265	39.53643	1539.27405	-90.16331	71.93235	1623.50562	-445.89679	1779.26392	1428.92151	2845.7251	1034.3855	-3357.34668	NaN	NaN	NaN	NaN	NaN	NaN
167	1.66	-322.57437	1754.66431	1337.61719	-311.26227	1739.39063	1480.93872	-416.31583	1637.03064	1334.1156	-416.85645	1616.13269	1476.04834	-435.5853	1520.38745	1399.9342	-500.95361	1251.60425	1398.17859	-298.65369	1451.34839	1393.05896	-255.45641	1273.82739	1400.4115	-502.31339	1353.10986	1459.68933	-349.82498	1497.81921	1221.96375	-331.06653	1303.01746	1125.23315	-303.06323	1166.06165	1100.35388	-255.66115	1042.10474	1088.94885	-176.97881	935.41467	1132.42188	-212.28143	927.45898	1088.89917	-173.30925	874.02338	1087.94592	-359.68008	1481.61108	1588.92017	-392.77634	1288.92383	1668.38953	-377.1322	1142.61084	1686.29541	-336.45709	1028.53564	1702.71631	-274.98395	908.70605	1678.06689	-319.9086	899.21155	1711.36804	-275.09708	841.67419	1711.5332	-279.16568	983.41107	1269.60657	-286.81781	971.70728	1524.75037	-489.15112	1031.04565	1346.05286	-497.1376	1027.98364	1459.86829	-366.98358	673.08649	1222.32959	-417.49686	474.03864	1253.03857	-491.69681	292.38394	1256.00208	-507.30856	69.43359	1295.32959	-543.72351	41.27142	1346.66479	-352.19083	32.27607	1276.70251	-303.86899	677.36493	1613.50586	-225.83542	483.75943	1593.00342	-237.03705	298.87628	1613.88757	-221.33717	103.95528	1597.08093	-238.63417	38.23062	1543.573	-67.0544	76.51683	1623.42578	-438.24066	1778.65747	1430.80969	2845.32397	1034.00598	-3360.3667	NaN	NaN	NaN	NaN	NaN	NaN
168	1.67	-314.91666	1753.97192	1339.5437	-303.65524	1738.40894	1482.89673	-408.85178	1636.5177	1335.83228	-409.50702	1615.38574	1477.78015	-428.39795	1519.7196	1401.43872	-493.77893	1250.94324	1399.26501	-291.3754	1450.57849	1394.49609	-248.271	1273.04517	1401.42651	-495.18439	1352.04907	1460.45581	-342.44861	1497.47632	1223.40918	-323.38904	1302.93164	1126.36475	-294.89322	1165.76208	1101.95874	-246.80948	1042.30627	1090.10242	-167.73534	936.07648	1133.43372	-202.91995	927.82697	1090.07654	-163.87349	874.72937	1088.85754	-352.63721	1480.50037	1590.29028	-386.16226	1287.71338	1669.4762	-371.0686	1141.35266	1687.12549	-331.17709	1027.14612	1703.77344	-269.96069	906.94025	1679.26794	-315.27655	897.67883	1712.41309	-270.78391	839.96674	1712.77527	-272.54361	982.4422	1269.65076	-279.64655	970.92926	1525.08325	-482.29871	1030.43018	1347.15259	-489.89215	1027.31201	1460.91211	-362.30908	672.44867	1223.05676	-414.32358	473.6713	1253.84436	-489.67535	292.53635	1256.49341	-506.95731	69.68811	1295.54675	-543.52271	41.75222	1346.89636	-352.0809	32.23906	1276.65771	-296.99033	676.56525	1614.03613	-217.88217	483.39859	1593.12708	-222.34859	298.49554	1615.92285	-200.67691	103.8583	1599.97241	-217.11745	37.14981	1547.28125	-44.8824	81.39091	1623.41406	-430.53836	1777.99768	1432.8053	2845.95532	1034.28699	-3357.39551	NaN	NaN	NaN	NaN	NaN	NaN
169	1.68	-307.32916	1753.22412	1341.59473	-296.03619	1737.39868	1484.927	-401.48947	1635.97314	1337.69702	-402.09952	1614.59155	1479.62805	-421.09579	1518.93347	1402.96741	-486.5527	1250.16895	1400.43726	-284.09885	1449.7312	1395.99805	-241.16376	1272.24316	1402.47388	-488.10843	1351.49426	1461.9021	-335.19354	1497.24341	1224.94116	-316.44458	1302.63391	1127.63086	-287.43552	1165.75122	1102.67664	-238.87312	1042.47961	1091.08374	-158.71307	936.60303	1134.54553	-193.90958	928.17334	1091.37622	-154.43178	875.25153	1090.05261	-345.7468	1479.21216	1591.77002	-379.53345	1286.48889	1670.61719	-364.97873	1140.0769	1688.10803	-325.67334	1025.63013	1704.83972	-264.9747	905.12848	1680.65735	-310.47781	896.14111	1713.59778	-266.42709	838.09534	1714.02002	-266.08502	981.31439	1269.81396	-272.19519	970.21387	1525.54236	-475.27182	1029.66638	1348.38379	-482.68271	1026.62854	1462.20422	-357.62936	671.71027	1223.76123	-410.93518	473.31564	1254.63147	-487.81992	292.8801	1256.96155	-506.67145	70.08076	1295.7937	-543.41711	42.19846	1347.12231	-351.95227	32.26788	1276.65515	-290.03073	675.711	1614.66748	-210.18742	482.65884	1593.13232	-208.44058	298.21692	1617.64038	-180.7363	104.09113	1602.66895	-196.4929	36.91342	1551.09924	-23.75821	86.23898	1623.1908	-422.86746	1777.35522	1434.93127	2845.07617	1034.26709	-3360.31152	NaN	NaN	NaN	NaN	NaN	NaN
